<svg xmlns="http://www.w3.org/2000/svg" width="752" height="32"><svg width="32" height="32" viewBox="0 0 32 32"><path d="M24 0H6L4 2v28l2 2h18l2-2V2l-2-2zm-9 31a2 2 0 1 1 0-4 2 2 0 0 1 0 4zm9-5H6V4h18v22z"/></svg><svg width="32" height="32" viewBox="0 0 32 32" x="48"><path d="M27 0H5C2 0 0 2 0 5v22c0 3 2 5 5 5h22c3 0 5-2 5-5V5c0-3-2-5-5-5zm0 4L16 14 5 4h22zM5 28l7-10-1-1-7 8V5l12 15L28 5v20l-7-8-1 1 7 10H5z"/></svg><svg width="32" height="32" viewBox="0 0 32 32" x="96"><path d="M19 6h5V0h-5c-4 0-7 3-7 7v3H8v6h4v16h6V16h5l1-6h-6V7l1-1z"/></svg><svg width="32" height="32" viewBox="0 0 32 32" x="144"><path d="M16 3a112 112 0 0 1 9 1l2 1 1 2 1 3a113 113 0 0 1-1 15l-1 2-2 1-3 1a113 113 0 0 1-15-1l-2-1-1-2-1-3A113 113 0 0 1 4 7l1-2 2-1 3-1h6zm0-3A117 117 0 0 0 6 1C4 1 4 2 3 3S1 4 1 6L0 9a118 118 0 0 0 1 17c0 2 1 2 2 3s1 2 3 2l3 1a117 117 0 0 0 17-1c2 0 2-1 3-2l2-3 1-3a117 117 0 0 0-1-17c0-2-1-2-2-3s-1-2-3-2l-3-1h-7z"/><path d="M16 8a8 8 0 1 0 0 16 8 8 0 0 0 0-16zm0 13a5 5 0 1 1 0-10 5 5 0 0 1 0 10zM26 7a2 2 0 1 1-3 0 2 2 0 0 1 3 0z"/></svg><svg width="32" height="32" viewBox="0 0 32 32" x="192"><path d="m32 7-4 1c2-1 3-2 3-4l-4 2a7 7 0 0 0-11 6C10 12 5 9 2 5a7 7 0 0 0 2 9l-3-1c0 3 3 6 6 7a7 7 0 0 1-3 0c0 2 3 4 6 4a13 13 0 0 1-10 3 19 19 0 0 0 29-17l3-3z"/></svg><svg width="32" height="32" viewBox="0 0 32 32" x="240"><path d="M12 12h6v3c0-2 2-3 5-3 6 0 7 4 7 8v10h-6v-9c0-2 0-4-3-4s-3 2-3 4v9h-6V12zM2 12h6v18H2V12zM8 7a3 3 0 1 1-6 0 3 3 0 0 1 6 0z"/></svg></svg>